<?xml version="1.0" encoding="utf-8"?>
<!-- Generator: Adobe Illustrator 22.0.1, SVG Export Plug-In . SVG Version: 6.00 Build 0)  -->
<svg version="1.1" id="Capa_1" xmlns="http://www.w3.org/2000/svg" xmlns:xlink="http://www.w3.org/1999/xlink" x="0px" y="0px"
	 viewBox="0 0 589.8 361.2" style="enable-background:new 0 0 589.8 361.2;" xml:space="preserve">
<style type="text/css">
	.st0{fill:#F18235;}
	.st1{fill:#333E48;}
</style>
<g>
	<g>
		<g>
			<path class="st0" d="M52,323.3l-7.4,24.6H40l-11.3-34.7H26v-5.5h13.6v5.5h-3.7l6.6,21.3l6.2-21.3h-3.5v-5.5H59v5.5h-3.6l6.6,21.4
				l6.8-21.4h-4.4v-5.5h13.7v5.5h-2.8l-11.3,34.7h-4.6L52,323.3z"/>
			<path class="st0" d="M123.3,341.6h4.2v5.5h-15.5v-5.5h4.2v-28.4h-4.2v-5.5h15.5v5.5h-4.2V341.6z"/>
			<path class="st0" d="M174.3,341.6h4.8v5.5h-16v-5.5h4.2v-28.4h-4.2v-5.5h16.2c4.9,0,8.6,0.8,10.8,2.4c2.3,1.6,3.4,4.2,3.4,7.7
				c0,2.2-0.6,4-1.7,5.4c-1.1,1.4-2.8,2.5-5.1,3.3c2,0.3,3.4,0.9,4.3,2c0.9,1.1,1.3,2.7,1.3,4.8v8.2h3.8v5.5h-10.9v-9.9
				c0-3.4-0.5-5.6-1.6-6.6c-1-1-2.9-1.5-5.7-1.5h-3.7V341.6z M174.3,313.2v10.4h5.2c2.5,0,4.2-0.4,5.3-1.2c1.1-0.8,1.7-2.1,1.7-3.9
				c0-1.8-0.6-3.1-1.7-4c-1.1-0.8-2.9-1.2-5.3-1.2H174.3z"/>
			<path class="st0" d="M231.3,347.1v-5.5h4.2v-28.4h-4.2v-5.5h30v10.7h-6.1v-5.2h-12.6v9.8h10.5v5.9h-10.5v12.6h12.4v-6.2h6.4v11.6
				H231.3z"/>
			<path class="st1" d="M306.4,343.8v3.3h-5.7v-13.3h5.7c0.7,2.8,1.9,5,3.5,6.4c1.6,1.5,3.5,2.2,5.9,2.2c1.8,0,3.3-0.6,4.5-1.7
				c1.2-1.1,1.8-2.5,1.8-4.2c0-1.5-0.5-2.7-1.6-3.7s-2.8-1.8-5.4-2.5l-4.5-1.3c-3.6-1-6.2-2.4-7.8-4.1c-1.6-1.7-2.4-4-2.4-6.8
				c0-3.2,1.1-5.9,3.4-8c2.3-2.2,5.1-3.2,8.5-3.2c1.8,0,3.5,0.3,5,0.9c1.5,0.6,2.9,1.4,4,2.5v-2.6h5.5v11.7h-5.5
				c-0.6-2.3-1.6-4.1-2.9-5.2c-1.3-1.1-3-1.7-5-1.7c-1.7,0-3.1,0.5-4.2,1.4c-1.1,0.9-1.6,2.1-1.6,3.6c0,1.2,0.3,2.2,1,2.9
				c0.7,0.7,1.9,1.3,3.6,1.8l4.8,1.4c4.4,1.3,7.5,2.8,9.3,4.7c1.8,1.8,2.7,4.3,2.7,7.4c0,3.7-1.1,6.6-3.4,8.9
				c-2.2,2.2-5.2,3.3-8.9,3.3c-2.1,0-4-0.3-5.8-1C309.2,346.2,307.7,345.1,306.4,343.8z"/>
			<path class="st1" d="M376.5,329.4v12.2h4.2v5.5h-15.5v-5.5h4.2v-28.4h-4.2v-5.5h15.5v5.5h-4.2v9.9h15.7v-9.9H388v-5.5h15.4v5.5
				h-4.2v28.4h4.2v5.5H388v-5.5h4.2v-12.2H376.5z"/>
			<path class="st1" d="M447.4,341.6h4.2v5.5h-14.1v-5.5h3.1l9.9-28.4h-4.2v-5.5h20.2v5.5h-4.5l9.7,28.4h3.6v5.5h-14.9v-5.5h4.2
				l-2.4-7.2h-12.4L447.4,341.6z M451.5,329h8.9l-4.4-13.3L451.5,329z"/>
			<path class="st1" d="M520.4,341.6h4.7v5.5h-15.9v-5.5h4.2v-28.4h-4.2v-5.5h15.3l7.7,22.6l7.8-22.6h14.8v5.5h-4.2v28.4h4.2v5.5
				h-15.9v-5.5h4.7V315l-9.7,26.8h-3.8l-9.8-26.8V341.6z"/>
		</g>
	</g>
	<path class="st0" d="M401.4,196.1c7.2-12.1,12.2-25.1,15-38.5l73.1-7.8l-31.1-31.1l-3.6-3.6l-15.3-15.3l-57.5-57.5
		c-12.5-12.5-26.9-21.8-42.3-27.9c-3.4-1.4-6.9-2.6-10.4-3.6c-30.5-9.2-63.7-6.7-92.7,7.7c-1.8,0.9-3.6,1.8-5.4,2.8
		c-10,5.6-19.4,12.6-27.9,21.1c-10.2,10.2-18.3,21.8-24.3,34.1c-2.1,4.4-4,8.8-5.6,13.3c-0.1,0.3-0.2,0.6-0.3,1
		c-7,20.6-8.6,42.6-4.7,63.9c4.5,24.3,16.1,47.6,34.9,66.4c7.7,7.7,16.2,14.3,25.2,19.6c2.7,1.6,5.4,3,8.1,4.4
		c5.8,2.9,11.7,5.2,17.8,7.2c4.5,1.4,9.1,2.6,13.7,3.5c34.4,6.8,71-0.9,100.3-22.9c3-2.3,6-4.7,8.9-7.3c1.6-1.4,3.1-2.9,4.6-4.4
		c5.5-5.5,10.3-11.3,14.6-17.5C398.4,201,399.9,198.6,401.4,196.1z M241.6,182.8c-2.5-2.5-4.8-5.2-6.9-8
		c-4.7-6.4-8.3-13.4-10.7-20.7c-4.1-12.8-4.7-26.5-1.6-39.5c3-12.5,9.4-24.4,19.1-34.1c1.5-1.5,3-2.8,4.5-4.1
		c1.9-1.6,3.8-3.1,5.8-4.4c3.6-2.4,7.3-4.5,11.2-6.3c15.8-7.1,33.6-8.2,50-3.4c11.3,3.3,21.9,9.4,30.8,18.3
		c26.8,26.8,28.1,69.7,3.9,98.1c-0.7,0.8-1.4,1.6-2.1,2.4c-0.6,0.6-1.1,1.2-1.7,1.8c-19.8,19.8-48.4,25.7-73.5,17.6
		C259.9,197,250,191.1,241.6,182.8z"/>
	<path class="st1" d="M184.1,67.1c-7.2,12.1-12.2,25.1-15,38.5L96,113.5l31.1,31.1l3.6,3.6l15.3,15.3l57.5,57.5
		c12.5,12.5,26.9,21.8,42.3,27.9c3.4,1.4,6.9,2.6,10.4,3.6c30.5,9.2,63.7,6.7,92.7-7.7c1.8-0.9,3.6-1.8,5.4-2.8
		c10-5.6,19.4-12.6,27.9-21.1c10.2-10.2,18.3-21.8,24.3-34.1c2.1-4.4,4-8.8,5.6-13.3c0.1-0.3,0.2-0.6,0.3-1
		c7-20.6,8.6-42.6,4.7-63.9c-4.5-24.3-16.1-47.6-34.9-66.4c-7.7-7.7-16.2-14.3-25.2-19.6c-2.7-1.6-5.4-3-8.1-4.4
		c-5.8-2.9-11.7-5.2-17.8-7.2c-4.5-1.4-9.1-2.6-13.7-3.5c-34.4-6.8-71,0.9-100.3,22.9c-3,2.3-6,4.7-8.9,7.3
		c-1.6,1.4-3.1,2.9-4.6,4.4c-5.5,5.5-10.3,11.3-14.6,17.5C187.2,62.2,185.6,64.6,184.1,67.1z M343.9,80.4c2.5,2.5,4.8,5.2,6.9,8
		c4.7,6.4,8.3,13.4,10.7,20.7c4.1,12.8,4.7,26.5,1.6,39.5c-3,12.5-9.4,24.4-19.1,34.1c-1.5,1.5-3,2.8-4.5,4.1
		c-1.9,1.6-3.8,3.1-5.8,4.4c-3.6,2.4-7.3,4.5-11.2,6.3c-15.8,7.1-33.6,8.2-50,3.4c-11.3-3.3-21.9-9.4-30.8-18.3
		c-26.8-26.8-28.1-69.7-3.9-98.1c0.7-0.8,1.4-1.6,2.1-2.4c0.6-0.6,1.1-1.2,1.7-1.8c19.8-19.8,48.4-25.7,73.5-17.6
		C325.6,66.2,335.5,72.1,343.9,80.4z"/>
</g>
</svg>
